<svg xmlns="http://www.w3.org/2000/svg" xmlns:xlink="http://www.w3.org/1999/xlink" contentStyleType="text/css" data-diagram-type="CLASS" height="910px" preserveAspectRatio="none" style="width:938px;height:910px;background:#14171C;" version="1.1" viewBox="0 0 938 910" width="938px" zoomAndPan="magnify"><title>UML L4 &#8212; Class diagram &#183; realestate runtime</title><defs/><g><rect fill="#14171C" height="910" style="stroke:none;stroke-width:1;" width="938" x="0" y="0"/><text fill="#E8EAED" font-family="sans-serif" font-size="14" font-weight="bold" lengthAdjust="spacing" textLength="314.2428" x="307.8786" y="24.9659">UML L4 &#8212; Class diagram &#183; realestate runtime</text><text fill="#E8EAED" font-family="sans-serif" font-size="14" font-weight="bold" lengthAdjust="spacing" textLength="464.7563" x="232.6219" y="44.0339">Dataclasses (immutable per-run values) + two service classes (I/O).</text><!--class CardSnapshot--><g class="entity" data-entity="CardSnapshot" data-source-line="39" data-uid="ent0002" id="entity_CardSnapshot"><rect fill="#14171C" height="366.4987" rx="2.5" ry="2.5" style="stroke:#FBBF24;stroke-width:0.5;" width="198.7593" x="6" y="537.1358"/><ellipse cx="54.7408" cy="559.8418" fill="#ADD1B2" rx="11" ry="11" style="stroke:#181818;stroke-width:1;"/><path d="M57.7096,565.4825 Q57.1315,565.7793 56.4908,565.92 Q55.8502,566.0762 55.1471,566.0762 Q52.6471,566.0762 51.319,564.4356 Q50.0065,562.7793 50.0065,559.6543 Q50.0065,556.5293 51.319,554.8731 Q52.6471,553.2168 55.1471,553.2168 Q55.8502,553.2168 56.4908,553.3731 Q57.1471,553.5293 57.7096,553.8262 L57.7096,556.545 Q57.0846,555.9668 56.4908,555.7012 Q55.8971,555.42 55.2721,555.42 Q53.9283,555.42 53.2408,556.4981 Q52.5533,557.5606 52.5533,559.6543 Q52.5533,561.7481 53.2408,562.8262 Q53.9283,563.8887 55.2721,563.8887 Q55.8971,563.8887 56.4908,563.6231 Q57.0846,563.3418 57.7096,562.7637 L57.7096,565.4825 Z " fill="#E8EAED"/><text fill="#FBBF24" font-family="sans-serif" font-size="12" font-style="italic" lengthAdjust="spacing" textLength="39.9003" x="101.6795" y="554.9639">&#171;value&#187;</text><text fill="#E8EAED" font-family="sans-serif" font-size="14" lengthAdjust="spacing" textLength="92.7777" x="75.2408" y="573.4459">CardSnapshot</text><line style="stroke:#FBBF24;stroke-width:0.5;" x1="7" x2="203.7593" y1="582.5479" y2="582.5479"/><ellipse cx="17" cy="597.5818" fill="none" rx="3" ry="3" style="stroke:#038048;stroke-width:1;"/><text fill="#E8EAED" font-family="sans-serif" font-size="14" lengthAdjust="spacing" textLength="111.3416" x="26" y="601.5138">canonical_url: str</text><ellipse cx="17" cy="616.6497" fill="none" rx="3" ry="3" style="stroke:#038048;stroke-width:1;"/><text fill="#E8EAED" font-family="sans-serif" font-size="14" lengthAdjust="spacing" textLength="89.0537" x="26" y="620.5817">listing_url: str</text><ellipse cx="17" cy="635.7177" fill="none" rx="3" ry="3" style="stroke:#038048;stroke-width:1;"/><text fill="#E8EAED" font-family="sans-serif" font-size="14" lengthAdjust="spacing" textLength="77.0977" x="26" y="639.6496">address: str</text><ellipse cx="17" cy="654.7856" fill="none" rx="3" ry="3" style="stroke:#038048;stroke-width:1;"/><text fill="#E8EAED" font-family="sans-serif" font-size="14" lengthAdjust="spacing" textLength="105.7416" x="26" y="658.7176">suburb_slug: str</text><ellipse cx="17" cy="673.8535" fill="none" rx="3" ry="3" style="stroke:#038048;stroke-width:1;"/><text fill="#E8EAED" font-family="sans-serif" font-size="14" lengthAdjust="spacing" textLength="91.2937" x="26" y="677.7855">state_slug: str</text><ellipse cx="17" cy="692.9214" fill="none" rx="3" ry="3" style="stroke:#038048;stroke-width:1;"/><text fill="#E8EAED" font-family="sans-serif" font-size="14" lengthAdjust="spacing" textLength="89.1797" x="26" y="696.8534">price_text: str</text><ellipse cx="17" cy="711.9893" fill="none" rx="3" ry="3" style="stroke:#038048;stroke-width:1;"/><text fill="#E8EAED" font-family="sans-serif" font-size="14" lengthAdjust="spacing" textLength="106.7076" x="26" y="715.9213">agent_name: str</text><ellipse cx="17" cy="731.0572" fill="none" rx="3" ry="3" style="stroke:#038048;stroke-width:1;"/><text fill="#E8EAED" font-family="sans-serif" font-size="14" lengthAdjust="spacing" textLength="115.5135" x="26" y="734.9892">agency_name: str</text><ellipse cx="17" cy="750.1252" fill="none" rx="3" ry="3" style="stroke:#038048;stroke-width:1;"/><text fill="#E8EAED" font-family="sans-serif" font-size="14" lengthAdjust="spacing" textLength="49.8258" x="26" y="754.0571">bed: int</text><ellipse cx="17" cy="769.1931" fill="none" rx="3" ry="3" style="stroke:#038048;stroke-width:1;"/><text fill="#E8EAED" font-family="sans-serif" font-size="14" lengthAdjust="spacing" textLength="54.8798" x="26" y="773.1251">bath: int</text><ellipse cx="17" cy="788.261" fill="none" rx="3" ry="3" style="stroke:#038048;stroke-width:1;"/><text fill="#E8EAED" font-family="sans-serif" font-size="14" lengthAdjust="spacing" textLength="45.0658" x="26" y="792.193">car: int</text><ellipse cx="17" cy="807.3289" fill="none" rx="3" ry="3" style="stroke:#038048;stroke-width:1;"/><text fill="#E8EAED" font-family="sans-serif" font-size="14" lengthAdjust="spacing" textLength="117.1936" x="26" y="811.2609">property_type: str</text><ellipse cx="17" cy="826.3968" fill="none" rx="3" ry="3" style="stroke:#038048;stroke-width:1;"/><text fill="#E8EAED" font-family="sans-serif" font-size="14" lengthAdjust="spacing" textLength="112.7556" x="26" y="830.3288">status_badge: str</text><ellipse cx="17" cy="845.4647" fill="none" rx="3" ry="3" style="stroke:#038048;stroke-width:1;"/><text fill="#E8EAED" font-family="sans-serif" font-size="14" lengthAdjust="spacing" textLength="96.0116" x="26" y="849.3967">fingerprint: str</text><ellipse cx="17" cy="864.5327" fill="none" rx="3" ry="3" style="stroke:#038048;stroke-width:1;"/><text fill="#E8EAED" font-family="sans-serif" font-size="14" lengthAdjust="spacing" textLength="91.2097" x="26" y="868.4646">raw_card: dict</text><line style="stroke:#FBBF24;stroke-width:1;" x1="7" x2="203.7593" y1="876.5666" y2="876.5666"/><ellipse cx="17" cy="891.6006" fill="#84BE84" rx="3" ry="3" style="stroke:#038048;stroke-width:1;"/><text fill="#E8EAED" font-family="sans-serif" font-size="14" lengthAdjust="spacing" textLength="172.7593" x="26" y="895.5326">compute_fingerprint() : str</text></g><!--class ProbeResult--><g class="entity" data-entity="ProbeResult" data-source-line="59" data-uid="ent0003" id="entity_ProbeResult"><rect fill="#14171C" height="137.6837" rx="2.5" ry="2.5" style="stroke:#FBBF24;stroke-width:0.5;" width="360.4866" x="451.5" y="80.6358"/><ellipse cx="587.5655" cy="103.3418" fill="#ADD1B2" rx="11" ry="11" style="stroke:#181818;stroke-width:1;"/><path d="M590.5342,108.9825 Q589.9561,109.2793 589.3155,109.42 Q588.6748,109.5762 587.9717,109.5762 Q585.4717,109.5762 584.1436,107.9356 Q582.8311,106.2793 582.8311,103.1543 Q582.8311,100.0293 584.1436,98.3731 Q585.4717,96.7168 587.9717,96.7168 Q588.6748,96.7168 589.3155,96.8731 Q589.9717,97.0293 590.5342,97.3262 L590.5342,100.045 Q589.9092,99.4668 589.3155,99.2012 Q588.7217,98.92 588.0967,98.92 Q586.753,98.92 586.0655,99.9981 Q585.378,101.0606 585.378,103.1543 Q585.378,105.2481 586.0655,106.3262 Q586.753,107.3887 588.0967,107.3887 Q588.7217,107.3887 589.3155,107.1231 Q589.9092,106.8418 590.5342,106.2637 L590.5342,108.9825 Z " fill="#E8EAED"/><text fill="#FBBF24" font-family="sans-serif" font-size="12" font-style="italic" lengthAdjust="spacing" textLength="39.9003" x="628.0432" y="98.4639">&#171;value&#187;</text><text fill="#E8EAED" font-family="sans-serif" font-size="14" lengthAdjust="spacing" textLength="79.8557" x="608.0655" y="116.9459">ProbeResult</text><line style="stroke:#FBBF24;stroke-width:0.5;" x1="452.5" x2="810.9866" y1="126.0479" y2="126.0479"/><ellipse cx="462.5" cy="141.0818" fill="none" rx="3" ry="3" style="stroke:#038048;stroke-width:1;"/><text fill="#E8EAED" font-family="sans-serif" font-size="14" lengthAdjust="spacing" textLength="83.2857" x="471.5" y="145.0138">outcome: str</text><ellipse cx="462.5" cy="160.1497" fill="none" rx="3" ry="3" style="stroke:#038048;stroke-width:1;"/><text fill="#E8EAED" font-family="sans-serif" font-size="14" lengthAdjust="spacing" textLength="91.1677" x="471.5" y="164.0817">sold_price: str</text><ellipse cx="462.5" cy="179.2177" fill="none" rx="3" ry="3" style="stroke:#038048;stroke-width:1;"/><text fill="#E8EAED" font-family="sans-serif" font-size="14" lengthAdjust="spacing" textLength="99.8336" x="471.5" y="183.1496">sold_date: date</text><line style="stroke:#FBBF24;stroke-width:1;" x1="452.5" x2="810.9866" y1="191.2516" y2="191.2516"/><text fill="#E8EAED" font-family="sans-serif" font-size="14" lengthAdjust="spacing" textLength="348.4866" x="457.5" y="210.2176">note: outcome in {SOLD, STILL_LISTED, NOT_FOUND}</text></g><!--class Event--><g class="entity" data-entity="Event" data-source-line="67" data-uid="ent0004" id="entity_Event"><rect fill="#14171C" height="156.7516" rx="2.5" ry="2.5" style="stroke:#FBBF24;stroke-width:0.5;" width="509.6419" x="223.5" y="641.6358"/><ellipse cx="455.822" cy="664.3418" fill="#ADD1B2" rx="11" ry="11" style="stroke:#181818;stroke-width:1;"/><path d="M458.7908,669.9825 Q458.2127,670.2793 457.572,670.42 Q456.9314,670.5762 456.2283,670.5762 Q453.7283,670.5762 452.4002,668.9356 Q451.0877,667.2793 451.0877,664.1543 Q451.0877,661.0293 452.4002,659.3731 Q453.7283,657.7168 456.2283,657.7168 Q456.9314,657.7168 457.572,657.8731 Q458.2283,658.0293 458.7908,658.3262 L458.7908,661.045 Q458.1658,660.4668 457.572,660.2012 Q456.9783,659.92 456.3533,659.92 Q455.0095,659.92 454.322,660.9981 Q453.6345,662.0606 453.6345,664.1543 Q453.6345,666.2481 454.322,667.3262 Q455.0095,668.3887 456.3533,668.3887 Q456.9783,668.3887 457.572,668.1231 Q458.1658,667.8418 458.7908,667.2637 L458.7908,669.9825 Z " fill="#E8EAED"/><text fill="#FBBF24" font-family="sans-serif" font-size="12" font-style="italic" lengthAdjust="spacing" textLength="39.9003" x="474.6208" y="659.4639">&#171;value&#187;</text><text fill="#E8EAED" font-family="sans-serif" font-size="14" lengthAdjust="spacing" textLength="36.4978" x="476.322" y="677.9459">Event</text><line style="stroke:#FBBF24;stroke-width:0.5;" x1="224.5" x2="732.1419" y1="687.0479" y2="687.0479"/><ellipse cx="234.5" cy="702.0818" fill="none" rx="3" ry="3" style="stroke:#038048;stroke-width:1;"/><text fill="#E8EAED" font-family="sans-serif" font-size="14" lengthAdjust="spacing" textLength="118.6076" x="243.5" y="706.0138">property_id: UUID</text><ellipse cx="234.5" cy="721.1497" fill="none" rx="3" ry="3" style="stroke:#038048;stroke-width:1;"/><text fill="#E8EAED" font-family="sans-serif" font-size="14" lengthAdjust="spacing" textLength="96.4596" x="243.5" y="725.0817">event_type: str</text><ellipse cx="234.5" cy="740.2177" fill="none" rx="3" ry="3" style="stroke:#038048;stroke-width:1;"/><text fill="#E8EAED" font-family="sans-serif" font-size="14" lengthAdjust="spacing" textLength="83.5377" x="243.5" y="744.1496">payload: dict</text><ellipse cx="234.5" cy="759.2856" fill="none" rx="3" ry="3" style="stroke:#038048;stroke-width:1;"/><text fill="#E8EAED" font-family="sans-serif" font-size="14" lengthAdjust="spacing" textLength="144.2135" x="243.5" y="763.2176">occurred_at: datetime</text><line style="stroke:#FBBF24;stroke-width:1;" x1="224.5" x2="732.1419" y1="771.3195" y2="771.3195"/><text fill="#E8EAED" font-family="sans-serif" font-size="14" lengthAdjust="spacing" textLength="497.6419" x="229.5" y="790.2855">note: event_type in {NEW, PRICE_CHANGED, SOLD, WITHDRAWN, RELISTED}</text></g><!--class PropertyRow--><g class="entity" data-entity="PropertyRow" data-source-line="76" data-uid="ent0005" id="entity_PropertyRow"><rect fill="#14171C" height="194.8874" rx="2.5" ry="2.5" style="stroke:#FBBF24;stroke-width:0.5;" width="179.1314" x="752" y="622.6358"/><ellipse cx="794.7856" cy="645.3418" fill="#ADD1B2" rx="11" ry="11" style="stroke:#181818;stroke-width:1;"/><path d="M797.7543,650.9825 Q797.1762,651.2793 796.5356,651.42 Q795.8949,651.5762 795.1918,651.5762 Q792.6918,651.5762 791.3637,649.9356 Q790.0512,648.2793 790.0512,645.1543 Q790.0512,642.0293 791.3637,640.3731 Q792.6918,638.7168 795.1918,638.7168 Q795.8949,638.7168 796.5356,638.8731 Q797.1918,639.0293 797.7543,639.3262 L797.7543,642.045 Q797.1293,641.4668 796.5356,641.2012 Q795.9418,640.92 795.3168,640.92 Q793.9731,640.92 793.2856,641.9981 Q792.5981,643.0606 792.5981,645.1543 Q792.5981,647.2481 793.2856,648.3262 Q793.9731,649.3887 795.3168,649.3887 Q795.9418,649.3887 796.5356,649.1231 Q797.1293,648.8418 797.7543,648.2637 L797.7543,650.9825 Z " fill="#E8EAED"/><text fill="#FBBF24" font-family="sans-serif" font-size="12" font-style="italic" lengthAdjust="spacing" textLength="39.9003" x="837.7028" y="640.4639">&#171;value&#187;</text><text fill="#E8EAED" font-family="sans-serif" font-size="14" lengthAdjust="spacing" textLength="85.3857" x="814.9601" y="658.9459">PropertyRow</text><line style="stroke:#FBBF24;stroke-width:0.5;" x1="753" x2="930.1314" y1="668.0479" y2="668.0479"/><ellipse cx="763" cy="683.0818" fill="none" rx="3" ry="3" style="stroke:#038048;stroke-width:1;"/><text fill="#E8EAED" font-family="sans-serif" font-size="14" lengthAdjust="spacing" textLength="55.0478" x="772" y="687.0138">id: UUID</text><ellipse cx="763" cy="702.1497" fill="none" rx="3" ry="3" style="stroke:#038048;stroke-width:1;"/><text fill="#E8EAED" font-family="sans-serif" font-size="14" lengthAdjust="spacing" textLength="111.3416" x="772" y="706.0817">canonical_url: str</text><ellipse cx="763" cy="721.2177" fill="none" rx="3" ry="3" style="stroke:#038048;stroke-width:1;"/><text fill="#E8EAED" font-family="sans-serif" font-size="14" lengthAdjust="spacing" textLength="112.3076" x="772" y="725.1496">current_price: str</text><ellipse cx="763" cy="740.2856" fill="none" rx="3" ry="3" style="stroke:#038048;stroke-width:1;"/><text fill="#E8EAED" font-family="sans-serif" font-size="14" lengthAdjust="spacing" textLength="119.7136" x="772" y="744.2176">current_status: str</text><ellipse cx="763" cy="759.3535" fill="none" rx="3" ry="3" style="stroke:#038048;stroke-width:1;"/><text fill="#E8EAED" font-family="sans-serif" font-size="14" lengthAdjust="spacing" textLength="153.1314" x="772" y="763.2855">consecutive_misses: int</text><ellipse cx="763" cy="778.4214" fill="none" rx="3" ry="3" style="stroke:#038048;stroke-width:1;"/><text fill="#E8EAED" font-family="sans-serif" font-size="14" lengthAdjust="spacing" textLength="146.1734" x="772" y="782.3534">last_seen_at: datetime</text><ellipse cx="763" cy="797.4893" fill="none" rx="3" ry="3" style="stroke:#038048;stroke-width:1;"/><text fill="#E8EAED" font-family="sans-serif" font-size="14" lengthAdjust="spacing" textLength="96.0116" x="772" y="801.4213">fingerprint: str</text><line style="stroke:#FBBF24;stroke-width:0.5;" x1="753" x2="930.1314" y1="809.5233" y2="809.5233"/></g><!--class SyncReport--><g class="entity" data-entity="SyncReport" data-source-line="86" data-uid="ent0006" id="entity_SyncReport"><rect fill="#14171C" height="118.6158" rx="2.5" ry="2.5" style="stroke:#FBBF24;stroke-width:0.5;" width="184.5494" x="106" y="323.1358"/><ellipse cx="156.6658" cy="345.8418" fill="#ADD1B2" rx="11" ry="11" style="stroke:#181818;stroke-width:1;"/><path d="M159.6346,351.4825 Q159.0565,351.7793 158.4158,351.92 Q157.7752,352.0762 157.0721,352.0762 Q154.5721,352.0762 153.244,350.4356 Q151.9315,348.7793 151.9315,345.6543 Q151.9315,342.5293 153.244,340.8731 Q154.5721,339.2168 157.0721,339.2168 Q157.7752,339.2168 158.4158,339.3731 Q159.0721,339.5293 159.6346,339.8262 L159.6346,342.545 Q159.0096,341.9668 158.4158,341.7012 Q157.8221,341.42 157.1971,341.42 Q155.8533,341.42 155.1658,342.4981 Q154.4783,343.5606 154.4783,345.6543 Q154.4783,347.7481 155.1658,348.8262 Q155.8533,349.8887 157.1971,349.8887 Q157.8221,349.8887 158.4158,349.6231 Q159.0096,349.3418 159.6346,348.7637 L159.6346,351.4825 Z " fill="#E8EAED"/><text fill="#FBBF24" font-family="sans-serif" font-size="12" font-style="italic" lengthAdjust="spacing" textLength="39.9003" x="194.5746" y="340.9639">&#171;value&#187;</text><text fill="#E8EAED" font-family="sans-serif" font-size="14" lengthAdjust="spacing" textLength="74.7177" x="177.1658" y="359.4459">SyncReport</text><line style="stroke:#FBBF24;stroke-width:0.5;" x1="107" x2="289.5494" y1="368.5479" y2="368.5479"/><ellipse cx="117" cy="383.5818" fill="none" rx="3" ry="3" style="stroke:#038048;stroke-width:1;"/><text fill="#E8EAED" font-family="sans-serif" font-size="14" lengthAdjust="spacing" textLength="158.5494" x="126" y="387.5138">properties_upserted: int</text><ellipse cx="117" cy="402.6497" fill="none" rx="3" ry="3" style="stroke:#038048;stroke-width:1;"/><text fill="#E8EAED" font-family="sans-serif" font-size="14" lengthAdjust="spacing" textLength="140.9794" x="126" y="406.5817">events_appended: int</text><ellipse cx="117" cy="421.7177" fill="none" rx="3" ry="3" style="stroke:#038048;stroke-width:1;"/><text fill="#E8EAED" font-family="sans-serif" font-size="14" lengthAdjust="spacing" textLength="107.4076" x="126" y="425.6496">duration_ms: int</text><line style="stroke:#FBBF24;stroke-width:0.5;" x1="107" x2="289.5494" y1="433.7516" y2="433.7516"/></g><!--class RealestateStore--><g class="entity" data-entity="RealestateStore" data-source-line="92" data-uid="ent0007" id="entity_RealestateStore"><rect fill="#1C2026" height="194.8874" rx="2.5" ry="2.5" style="stroke:#5EEAD4;stroke-width:0.5;" width="339.3188" x="309" y="285.1358"/><ellipse cx="422.7006" cy="307.8418" fill="#ADD1B2" rx="11" ry="11" style="stroke:#181818;stroke-width:1;"/><path d="M425.6693,313.4825 Q425.0912,313.7793 424.4506,313.92 Q423.81,314.0762 423.1068,314.0762 Q420.6068,314.0762 419.2787,312.4356 Q417.9662,310.7793 417.9662,307.6543 Q417.9662,304.5293 419.2787,302.8731 Q420.6068,301.2168 423.1068,301.2168 Q423.81,301.2168 424.4506,301.3731 Q425.1068,301.5293 425.6693,301.8262 L425.6693,304.545 Q425.0443,303.9668 424.4506,303.7012 Q423.8568,303.42 423.2318,303.42 Q421.8881,303.42 421.2006,304.4981 Q420.5131,305.5606 420.5131,307.6543 Q420.5131,309.7481 421.2006,310.8262 Q421.8881,311.8887 423.2318,311.8887 Q423.8568,311.8887 424.4506,311.6231 Q425.0443,311.3418 425.6693,310.7637 L425.6693,313.4825 Z " fill="#E8EAED"/><text fill="#5EEAD4" font-family="sans-serif" font-size="12" font-style="italic" lengthAdjust="spacing" textLength="47.5203" x="471.1492" y="302.9639">&#171;service&#187;</text><text fill="#E8EAED" font-family="sans-serif" font-size="14" lengthAdjust="spacing" textLength="103.4176" x="443.2006" y="321.4459">RealestateStore</text><line style="stroke:#5EEAD4;stroke-width:0.5;" x1="310" x2="647.3188" y1="330.5479" y2="330.5479"/><rect fill="none" height="6" style="stroke:#C82930;stroke-width:1;" width="6" x="317" y="342.5818"/><text fill="#E8EAED" font-family="sans-serif" font-size="14" lengthAdjust="spacing" textLength="116.0316" x="329" y="349.5138">writer: RestWriter</text><line style="stroke:#5EEAD4;stroke-width:1;" x1="310" x2="647.3188" y1="357.6158" y2="357.6158"/><ellipse cx="320" cy="372.6497" fill="#84BE84" rx="3" ry="3" style="stroke:#038048;stroke-width:1;"/><text fill="#E8EAED" font-family="sans-serif" font-size="14" lengthAdjust="spacing" textLength="293.1169" x="329" y="376.5817">upsert_property(snap: CardSnapshot) : UUID</text><ellipse cx="320" cy="391.7177" fill="#84BE84" rx="3" ry="3" style="stroke:#038048;stroke-width:1;"/><text fill="#E8EAED" font-family="sans-serif" font-size="14" lengthAdjust="spacing" textLength="194.5152" x="329" y="395.6496">insert_event(ev: Event) : None</text><ellipse cx="320" cy="410.7856" fill="#84BE84" rx="3" ry="3" style="stroke:#038048;stroke-width:1;"/><text fill="#E8EAED" font-family="sans-serif" font-size="14" lengthAdjust="spacing" textLength="215.3612" x="329" y="414.7176">select_active() : list[PropertyRow]</text><ellipse cx="320" cy="429.8535" fill="#84BE84" rx="3" ry="3" style="stroke:#038048;stroke-width:1;"/><text fill="#E8EAED" font-family="sans-serif" font-size="14" lengthAdjust="spacing" textLength="313.3188" x="329" y="433.7855">select_missing_since(d: date) : list[PropertyRow]</text><ellipse cx="320" cy="448.9214" fill="#84BE84" rx="3" ry="3" style="stroke:#038048;stroke-width:1;"/><text fill="#E8EAED" font-family="sans-serif" font-size="14" lengthAdjust="spacing" textLength="181.7053" x="329" y="452.8534">mark_seen(id: UUID) : None</text><ellipse cx="320" cy="467.9893" fill="#84BE84" rx="3" ry="3" style="stroke:#038048;stroke-width:1;"/><text fill="#E8EAED" font-family="sans-serif" font-size="14" lengthAdjust="spacing" textLength="162.3294" x="329" y="471.9213">mark_miss(id: UUID) : int</text></g><!--class SheetsSyncer--><g class="entity" data-entity="SheetsSyncer" data-source-line="103" data-uid="ent0008" id="entity_SheetsSyncer"><rect fill="#1C2026" height="156.7516" rx="2.5" ry="2.5" style="stroke:#5EEAD4;stroke-width:0.5;" width="294.085" x="139.5" y="71.1358"/><ellipse cx="238.4097" cy="93.8418" fill="#ADD1B2" rx="11" ry="11" style="stroke:#181818;stroke-width:1;"/><path d="M241.3784,99.4825 Q240.8003,99.7793 240.1597,99.92 Q239.519,100.0762 238.8159,100.0762 Q236.3159,100.0762 234.9878,98.4356 Q233.6753,96.7793 233.6753,93.6543 Q233.6753,90.5293 234.9878,88.8731 Q236.3159,87.2168 238.8159,87.2168 Q239.519,87.2168 240.1597,87.3731 Q240.8159,87.5293 241.3784,87.8262 L241.3784,90.545 Q240.7534,89.9668 240.1597,89.7012 Q239.5659,89.42 238.9409,89.42 Q237.5972,89.42 236.9097,90.4981 Q236.2222,91.5606 236.2222,93.6543 Q236.2222,95.7481 236.9097,96.8262 Q237.5972,97.8887 238.9409,97.8887 Q239.5659,97.8887 240.1597,97.6231 Q240.7534,97.3418 241.3784,96.7637 L241.3784,99.4825 Z " fill="#E8EAED"/><text fill="#5EEAD4" font-family="sans-serif" font-size="12" font-style="italic" lengthAdjust="spacing" textLength="47.5203" x="279.0323" y="88.9639">&#171;service&#187;</text><text fill="#E8EAED" font-family="sans-serif" font-size="14" lengthAdjust="spacing" textLength="87.7657" x="258.9097" y="107.4459">SheetsSyncer</text><line style="stroke:#5EEAD4;stroke-width:0.5;" x1="140.5" x2="432.585" y1="116.5479" y2="116.5479"/><rect fill="none" height="6" style="stroke:#C82930;stroke-width:1;" width="6" x="147.5" y="128.5818"/><text fill="#E8EAED" font-family="sans-serif" font-size="14" lengthAdjust="spacing" textLength="117.6275" x="159.5" y="135.5138">creds: Credentials</text><rect fill="none" height="6" style="stroke:#C82930;stroke-width:1;" width="6" x="147.5" y="147.6497"/><text fill="#E8EAED" font-family="sans-serif" font-size="14" lengthAdjust="spacing" textLength="79.5757" x="159.5" y="154.5817">sheet_id: str</text><line style="stroke:#5EEAD4;stroke-width:1;" x1="140.5" x2="432.585" y1="162.6837" y2="162.6837"/><ellipse cx="150.5" cy="177.7177" fill="#84BE84" rx="3" ry="3" style="stroke:#038048;stroke-width:1;"/><text fill="#E8EAED" font-family="sans-serif" font-size="14" lengthAdjust="spacing" textLength="268.085" x="159.5" y="181.6496">sync(store: RealestateStore) : SyncReport</text><rect fill="#F24D5C" height="6" style="stroke:#C82930;stroke-width:1;" width="6" x="147.5" y="193.7856"/><text fill="#E8EAED" font-family="sans-serif" font-size="14" lengthAdjust="spacing" textLength="219.9952" x="159.5" y="200.7176">_upsert_properties_tab(rows) : int</text><rect fill="#F24D5C" height="6" style="stroke:#C82930;stroke-width:1;" width="6" x="147.5" y="212.8535"/><text fill="#E8EAED" font-family="sans-serif" font-size="14" lengthAdjust="spacing" textLength="213.7792" x="159.5" y="219.7855">_append_events_tab(events) : int</text></g><g class="link" data-entity-1="RealestateStore" data-entity-2="CardSnapshot" data-uid="lnk9" id="link_RealestateStore_CardSnapshot"><polygon fill="#888888" points="205.2318,546.7599,214.2638,542.8326,208.6122,543.0757,208.3691,537.4241,205.2318,546.7599" style="stroke:#888888;stroke-width:1;"/><path d="M308.6431,478.0921 C262.9444,504.3762 223.5555,528.1969 214.5,537.1358 C211.3547,540.2407 212.3211,539.0334 209.2882,542.3389" fill="none" style="stroke:#888888;stroke-width:1;stroke-dasharray:7.0,7.0;"/><text fill="#9AA3AD" font-family="sans-serif" font-size="13" lengthAdjust="spacing" textLength="45.877" x="271.5" y="514.0328">upserts</text></g><g class="link" data-entity-1="RealestateStore" data-entity-2="Event" data-uid="lnk10" id="link_RealestateStore_Event"><polygon fill="#888888" points="478.5,641.5221,482.5,632.5221,478.5,636.5221,474.5,632.5221,478.5,641.5221" style="stroke:#888888;stroke-width:1;"/><path d="M478.5,480.2262 C478.5,531.4283 478.5,587.4878 478.5,635.5221" fill="none" style="stroke:#888888;stroke-width:1;stroke-dasharray:7.0,7.0;"/><text fill="#9AA3AD" font-family="sans-serif" font-size="13" lengthAdjust="spacing" textLength="41.236" x="480.5" y="514.0328">inserts</text></g><g class="link" data-entity-1="RealestateStore" data-entity-2="PropertyRow" data-uid="lnk11" id="link_RealestateStore_PropertyRow"><polygon fill="#888888" points="801.2966,622.3294,800.6925,612.4991,798.9895,617.8935,793.5951,616.1905,801.2966,622.3294" style="stroke:#888888;stroke-width:1;"/><path d="M648.3016,463.8373 C682.0144,484.6405 715.3404,509.1919 742.5,537.1358 C766.1907,561.5108 783.1127,587.3673 798.5281,617.0063" fill="none" style="stroke:#888888;stroke-width:1;stroke-dasharray:7.0,7.0;"/><text fill="#9AA3AD" font-family="sans-serif" font-size="13" lengthAdjust="spacing" textLength="34.216" x="719.5" y="514.0328">reads</text></g><g class="link" data-entity-1="SheetsSyncer" data-entity-2="RealestateStore" data-uid="lnk12" id="link_SheetsSyncer_RealestateStore"><polygon fill="#888888" points="398.1731,284.9925,395.4964,275.5144,394.9771,281.1473,389.3441,280.628,398.1731,284.9925" style="stroke:#888888;stroke-width:1;"/><path d="M350.9673,228.1981 C366.1102,246.4169 378.5954,261.4381 394.3379,280.3783" fill="none" style="stroke:#888888;stroke-width:1;"/><text fill="#9AA3AD" font-family="sans-serif" font-size="13" lengthAdjust="spacing" textLength="34.216" x="384.5" y="262.0328">reads</text></g><g class="link" data-entity-1="SheetsSyncer" data-entity-2="SyncReport" data-uid="lnk13" id="link_SheetsSyncer_SyncReport"><polygon fill="#888888" points="220.8715,322.9107,227.8134,315.9243,222.6515,318.2383,220.3375,313.0763,220.8715,322.9107" style="stroke:#888888;stroke-width:1;"/><path d="M256.9525,228.1981 C245.1686,259.1307 233.965,288.5402 223.0075,317.3038" fill="none" style="stroke:#888888;stroke-width:1;stroke-dasharray:7.0,7.0;"/><text fill="#9AA3AD" font-family="sans-serif" font-size="13" lengthAdjust="spacing" textLength="45.058" x="250.5" y="262.0328">returns</text></g><!--SRC=[dLRRRkCs47ttLx3eYuEDqoPDswsm293QtiQ0wopi17be2s8aZXqY4YcGb5rZ4Q0ViV-ox_sKVac7kZYwnGki7sHfhcVE34Vw9ZMmIO35iDUPOpP11me6JheOsVtlSpQ_PF_zyucDOx2M2GaR0mdxzpCp235Q1mwPoPIJ2Vwf9k0WyePesL0cIUOWf30fcX7Pi2t46TeJzeQvdMOMpLP6o0uEi-zkJyu60_iaLGe-ImZHqyReJ8cnZhLXtvvVdlzy7jKix2C8lPDgmzOGMwnf1AuXYzrxhLpfZ6yHKDHChetHkrBvDl-rbJNlNm1-WBgtqWv_xG2CBhw_-AbjfOr0KrhyY0ZYicNHHLapoFbX7mUCVgybp7KzQRoy6znBhvqpCipwSdlr3RcZEPPkvT2WTliKkomzT_2_UvSt_-hgrKAArdOAMOVX-k9O8QyXVOdtXL9x2odJzXLIpksHKhws9ryc_MjAATDIASKaZS68bOBKFch7sdrvmo9GMia8OfwPE63McL8HI-lefBN588H1Q-iYcuMP2RcDiqr3x9T5HveQ8fCx_DirecvGEQuWmROqsdV48Og0IUMgHt2FzUS8JFqnDPeMajjpprCRNsPv26BJaA-fQZI4KpKW6jXn2asfXOoAuADHbL8dANM9rro79wpmFZJYWz4XBj7Ickhf0srZYj84g6F1SxuwKa7K4X2wre7utH9KaOW2zd5rEv-SijNTR3xdyzdgRafFYzix_lxsVZ5vVi4stHB_FQWEv4cg-_v-DYdbwEqxZAQmZpNK6QAweYWp1WK7Lm3shuukw9U0EUx5zE6KVLZEnbC-lhbU_EPn5xKypEvk9ilhXyKfMqwBafuR7ETubthNKqshY5T7FqTCS3hSLufYT1eQhIn6cPDRv8dqBxZw318sSa9KNHPwvkrGpMgleYMcsXnfZKJBivIMb6kUYfnGoo5DKOccIcG6dDIA9oN8GyBbuIM_SjeWwsw_4TiPIMid85lh7lBxvbaemF1gSeQMTa_Gs4B-PDJQ85Nka0CUuZOeXj4RBRIgIB8OO-GuH9xX_6pv_VH7hTz_DIrz4_pweak4Gr6mViml0VEKzsXOZKaBGcxWmpOC6loj7X6TzMr3qqjUH2U1I1_J7zKewIEcL5ZlcP-oQgOEX5eADxI-7q6xGHx0ov2KeNYp0tv0wBjiIDytjW9S6XR3mSjHyKR5RQskzaISdLqrtoX1sN3RQrhibQ3iSRzD_Sm6_ZjJs463oD7egZEPlOO-MktCU1kN6MK7_mC0]--></g></svg>